<svg xmlns="http://www.w3.org/2000/svg" viewBox="0 0 64 64"><style>.s{transform-origin:53px 11px;animation:t 1.2s ease-in-out 5 alternate}.s+.s{transform-origin:9px 8px;animation-delay:.6s}@keyframes t{to{transform:scale(.4);opacity:.4}}@media(prefers-reduced-motion:reduce){*{animation:none!important}}</style><path d="M11 46L6 18l14 11 12-17 12 17 14-11-5 28z" fill="#ffc233" stroke="#e59a00" stroke-width="2.5" stroke-linejoin="round"/><rect x="10" y="48" width="44" height="8" rx="3" fill="#e59a00"/><circle cx="32" cy="36" r="4.5" fill="#4f5bd5"/><circle cx="19" cy="38" r="3" fill="#ef4f6e"/><circle cx="45" cy="38" r="3" fill="#ef4f6e"/><path class="s" d="M53 4l1.8 5.2 5.2 1.8-5.2 1.8L53 18l-1.8-5.2-5.2-1.8 5.2-1.8z" fill="#fff" stroke="#e59a00" stroke-width="1.2"/><path class="s" d="M9 3l1.2 3.8L14 8l-3.8 1.2L9 13l-1.2-3.8L4 8l3.8-1.2z" fill="#fff" stroke="#e59a00" stroke-width="1.2"/></svg>
